#tb 0: 1/30
0,          0,          0,        1,   230400, 0xf814fc90
0,          3,          3,        1,   230400, 0xe1b13137
0,          6,          6,        1,   230400, 0xa7f4d408
0,          9,          9,        1,   230400, 0x4b86e1d5
0,         12,         12,        1,   230400, 0xc663af5a
0,         15,         15,        1,   230400, 0x943b5757
0,         18,         18,        1,   230400, 0x0d7ee496
0,         21,         21,        1,   230400, 0x78792de4
0,         24,         24,        1,   230400, 0xd102fb8d
0,         27,         27,        1,   230400, 0xf9006139
0,         30,         30,        1,   230400, 0x216bd87d
0,         33,         33,        1,   230400, 0x1e4c902c
0,         36,         36,        1,   230400, 0x5aaa7742
0,         39,         39,        1,   230400, 0x48699d93
0,         42,         42,        1,   230400, 0xd1e22a5c
0,         45,         45,        1,   230400, 0x18929315
0,         48,         48,        1,   230400, 0x680dd4d3
0,         51,         51,        1,   230400, 0x4cdbcbcb
0,         54,         54,        1,   230400, 0x6f810d98
0,         57,         57,        1,   230400, 0xb4f68204
0,         60,         60,        1,   230400, 0xbd3bb19e
0,         63,         63,        1,   230400, 0xab27b424
0,         66,         66,        1,   230400, 0xe5dd675d
0,         69,         69,        1,   230400, 0x811e45a1
0,         72,         72,        1,   230400, 0x951011f7
0,         75,         75,        1,   230400, 0x2f1e2b99
0,         78,         78,        1,   230400, 0x6657c0d6
0,         81,         81,        1,   230400, 0xfd29177d
0,         84,         84,        1,   230400, 0x4b4c01d7
0,         87,         87,        1,   230400, 0x9af286aa
0,         90,         90,        1,   230400, 0xc4e9b193
0,         93,         93,        1,   230400, 0x05dc28ec
0,         96,         96,        1,   230400, 0x68352119
0,         99,         99,        1,   230400, 0x0b87e79c
0,        102,        102,        1,   230400, 0x8358b180
0,        105,        105,        1,   230400, 0x8debbc9d
0,        108,        108,        1,   230400, 0x961c58ce
0,        111,        111,        1,   230400, 0xd8a809c8
0,        114,        114,        1,   230400, 0x5351789d
0,        117,        117,        1,   230400, 0xa7ca598c
0,        120,        120,        1,   230400, 0xc5ce1812
0,        123,        123,        1,   230400, 0x74496550
0,        126,        126,        1,   230400, 0x326e366e
0,        129,        129,        1,   230400, 0x27ae9a92
0,        132,        132,        1,   230400, 0xadbc8794
0,        135,        135,        1,   230400, 0x7f3587d8
0,        138,        138,        1,   230400, 0xf0400ca6
0,        141,        141,        1,   230400, 0x59a5138e
0,        144,        144,        1,   230400, 0x456d62a5
0,        147,        147,        1,   230400, 0xf1a5e5f1
0,        150,        150,        1,   230400, 0x75c712e4
0,        153,        153,        1,   230400, 0xd160780a
0,        156,        156,        1,   230400, 0xc6c23cf0
0,        159,        159,        1,   230400, 0x0339a2ac
0,        162,        162,        1,   230400, 0x0e27a2e2
0,        165,        165,        1,   230400, 0x84976300
0,        168,        168,        1,   230400, 0xb368f3c4
0,        171,        171,        1,   230400, 0xa5231fb8
0,        174,        174,        1,   230400, 0x17c036d4
0,        177,        177,        1,   230400, 0xfc81a2c0
0,        180,        180,        1,   230400, 0x99faa403
0,        183,        183,        1,   230400, 0xff59efd3
0,        186,        186,        1,   230400, 0xcece1d23
0,        189,        189,        1,   230400, 0x56c785d9
0,        192,        192,        1,   230400, 0xe5a9f222
0,        195,        195,        1,   230400, 0xb80946f8
0,        198,        198,        1,   230400, 0xf6b642c6
0,        201,        201,        1,   230400, 0x69573aed
0,        204,        204,        1,   230400, 0xfb69a1fd
0,        207,        207,        1,   230400, 0x100b47f4
0,        210,        210,        1,   230400, 0x6edf9543
0,        213,        213,        1,   230400, 0x11fdf43c
0,        216,        216,        1,   230400, 0xd143bf2a
0,        219,        219,        1,   230400, 0x7ca747c4
0,        222,        222,        1,   230400, 0xd984bd73
0,        225,        225,        1,   230400, 0xc5477e8d
0,        228,        228,        1,   230400, 0xf7d58300
0,        231,        231,        1,   230400, 0x7a1b9463
0,        234,        234,        1,   230400, 0x47a29342
0,        237,        237,        1,   230400, 0xdf437f9d
0,        240,        240,        1,   230400, 0xf836ef5d
0,        243,        243,        1,   230400, 0xc98937af
0,        246,        246,        1,   230400, 0x9258695b
0,        249,        249,        1,   230400, 0xd4fe179c
0,        252,        252,        1,   230400, 0x35d524d3
0,        255,        255,        1,   230400, 0xd9ce5484
0,        258,        258,        1,   230400, 0xdef776ed
0,        261,        261,        1,   230400, 0x154c4057
0,        264,        264,        1,   230400, 0xf5c764f1
0,        267,        267,        1,   230400, 0x41979b13
0,        270,        270,        1,   230400, 0xae4e83db
0,        273,        273,        1,   230400, 0x09fc0f83
0,        276,        276,        1,   230400, 0x60267fdf
0,        279,        279,        1,   230400, 0xeaafc525
0,        282,        282,        1,   230400, 0x80cc35e5
0,        285,        285,        1,   230400, 0xd82c6164
0,        288,        288,        1,   230400, 0xd68b8111
0,        291,        291,        1,   230400, 0x96f874a3
0,        294,        294,        1,   230400, 0x7fc861c4
0,        297,        297,        1,   230400, 0xb911f310
0,        300,        300,        1,   230400, 0x35bbf5aa
0,        303,        303,        1,   230400, 0xa922b683
0,        306,        306,        1,   230400, 0xbf6ae353
0,        309,        309,        1,   230400, 0x6bd3984c
0,        312,        312,        1,   230400, 0xe51768c0
0,        315,        315,        1,   230400, 0xee691624
0,        318,        318,        1,   230400, 0xd546fed7
0,        321,        321,        1,   230400, 0x98d375e6
0,        324,        324,        1,   230400, 0x3b9ca990
0,        327,        327,        1,   230400, 0x27128ad1
0,        330,        330,        1,   230400, 0x2788e38c
0,        333,        333,        1,   230400, 0xb0cf3381
0,        336,        336,        1,   230400, 0x4fc86d39
0,        339,        339,        1,   230400, 0xf5632fff
0,        342,        342,        1,   230400, 0x7fa1e6c2
0,        345,        345,        1,   230400, 0xffeef044
0,        348,        348,        1,   230400, 0x932af385
0,        351,        351,        1,   230400, 0x76738428
0,        354,        354,        1,   230400, 0xf6771ba2
0,        357,        357,        1,   230400, 0x17e2ff27
